<svg width="19" height="20" viewBox="0 0 19 20" fill="none" xmlns="http://www.w3.org/2000/svg">
<path d="M4.02334 4.45329C2.70846 5.89148 1.9 7.84636 1.9 10C1.9 14.4183 5.30263 18 9.5 18C10.5268 18 11.506 17.7857 12.3995 17.3972C12.5087 16.6467 12.2691 15.9266 12.171 15.6746C11.9529 15.115 11.2329 14.1582 10.031 12.8308C9.71014 12.4758 9.73075 12.2035 9.84542 11.3943L9.85862 11.3029C9.93652 10.7486 10.0672 10.4209 11.8391 10.1248C12.7392 9.9746 12.976 10.3533 13.3041 10.8777C13.3404 10.9358 13.3767 10.9928 13.4138 11.0499C13.7255 11.5297 13.9565 11.6394 14.3053 11.8064C14.4616 11.881 14.6566 11.9751 14.9179 12.1314C15.5373 12.504 15.5373 12.9247 15.5373 13.8472V13.9518C15.5373 14.3434 15.501 14.6872 15.4438 14.9859C16.4804 13.6185 17.1 11.8854 17.1 10C17.1 6.70089 15.2029 3.8682 12.4943 2.64482C11.9688 3.01813 11.2478 3.54726 10.9963 3.91C10.8676 4.09538 10.6858 5.04166 10.0944 5.11976C9.93947 5.14023 9.73161 5.12589 9.5114 5.11097C8.92097 5.07058 8.11319 5.01606 7.8546 5.75495C7.69044 6.2232 7.66156 7.49445 8.19271 8.1543C8.27773 8.2597 8.29416 8.4547 8.2364 8.6735C8.1605 8.9608 8.00717 9.1356 7.95938 9.1717C7.8678 9.1163 7.68512 8.8931 7.56141 8.7412C7.26326 8.3765 6.89135 7.92233 6.41057 7.78176C6.23575 7.73083 6.04358 7.68867 5.85721 7.64736C5.33558 7.53227 4.74471 7.40134 4.60742 7.09302C4.5072 6.8672 4.50764 6.55621 4.50803 6.22764C4.50803 5.8112 4.50803 5.34029 4.31423 4.88256C4.23934 4.70541 4.13905 4.56446 4.02334 4.45329ZM9.5 20C4.25329 20 0 15.5228 0 10C0 4.47715 4.25329 0 9.5 0C14.7467 0 19 4.47715 19 10C19 15.5228 14.7467 20 9.5 20Z" fill="#39735E"/>
</svg>
