<svg width="17" height="16" viewBox="0 0 17 16" fill="none" xmlns="http://www.w3.org/2000/svg">
<path d="M9.32291 0L9.32241 1.07621L13.4377 2.48077L16.4271 1.46113L16.9475 3.05891L14.4527 3.9099L17 11.0778C16.1014 12.0355 14.8376 12.6316 13.4377 12.6316C12.0378 12.6316 10.774 12.0355 9.87544 11.0778L12.4217 3.9099L9.32241 2.85221V14.3158H12.6147V16H4.38521V14.3158H7.6765V2.85221L4.57727 3.9099L7.12455 11.0778C6.22595 12.0355 4.96213 12.6316 3.56226 12.6316C2.16238 12.6316 0.898559 12.0355 0 11.0778L2.54622 3.9099L0.0524304 3.05891L0.572908 1.46113L3.56226 2.48077L7.6765 1.07621L7.677 0H9.32291ZM13.4377 5.9812L12.2711 9.26316H14.6041L13.4377 5.9812ZM3.56226 5.9812L2.39562 9.26316H4.7287L3.56226 5.9812Z" fill="#CA813D"/>
</svg>
