<svg width="17" height="16" viewBox="0 0 17 16" fill="none" xmlns="http://www.w3.org/2000/svg">
<path d="M4.25 3.2V0.8C4.25 0.358176 4.63056 0 5.1 0H11.9C12.3695 0 12.75 0.358176 12.75 0.8V3.2H16.15C16.6195 3.2 17 3.55818 17 4V15.2C17 15.6418 16.6195 16 16.15 16H0.85C0.380562 16 0 15.6418 0 15.2V4C0 3.55818 0.380562 3.2 0.85 3.2H4.25ZM5.95 9.6H1.7V14.4H15.3V9.6H11.05V12H5.95V9.6ZM15.3 4.8H1.7V8H5.95V6.4H11.05V8H15.3V4.8ZM7.65 8V10.4H9.35V8H7.65ZM5.95 1.6V3.2H11.05V1.6H5.95Z" fill="#A68445"/>
</svg>
