<svg width="16" height="16" viewBox="0 0 16 16" fill="none" xmlns="http://www.w3.org/2000/svg">
<path d="M14.346 7.87586L15.6119 10.0515C16.4108 11.425 15.9367 13.1813 14.553 13.9743C14.1132 14.2264 13.6144 14.359 13.1065 14.359L11.4019 14.3585V16L7.26907 13.1283L11.4019 10.2566V11.8971L13.1065 11.8976C13.1791 11.8976 13.2503 11.8786 13.3131 11.8426C13.4889 11.7419 13.5619 11.5324 13.4958 11.3494L13.4644 11.2822L12.1986 9.10659L14.346 7.87586ZM4.57186 5.6487L5.01084 10.6374L3.57959 9.81713L2.7269 11.2822C2.69062 11.3446 2.67153 11.4153 2.67153 11.4873C2.67153 11.6887 2.81772 11.8562 3.01052 11.8909L3.08482 11.8976L5.61584 11.8972V14.3586L3.08482 14.359C1.48705 14.359 0.191806 13.0733 0.191806 11.4873C0.191806 10.9832 0.32548 10.488 0.579395 10.0515L1.43208 8.5864L0 7.76566L4.57186 5.6487ZM9.54215 0.385217C9.98197 0.637263 10.3472 0.999779 10.6011 1.43634L11.4529 2.90188L12.885 2.08115L12.446 7.06981L7.87421 4.95286L9.30542 4.13262L8.45355 2.66707C8.41727 2.6047 8.36511 2.55291 8.30229 2.5169C8.12656 2.4162 7.90735 2.45814 7.78064 2.60651L7.73774 2.66707L6.4725 4.84299L4.32507 3.61232L5.59024 1.43634C6.38912 0.0628143 8.15847 -0.407785 9.54215 0.385217Z" fill="#11758C"/>
</svg>
