<svg width="20" height="22" viewBox="0 0 20 22" fill="none" xmlns="http://www.w3.org/2000/svg">
<path d="M8.75814 0C13.2111 0 16.8879 3.33918 17.4437 7.66143L19.9075 11.5541C20.0697 11.8104 20.037 12.1932 19.6613 12.3549L17.5163 13.2781V16.5C17.5163 17.7151 16.536 18.7 15.3267 18.7H13.1383L13.1372 22H3.2843L3.28458 17.9367C3.28466 16.6377 2.80645 15.4096 1.92186 14.3012C0.719339 12.7944 0 10.8816 0 8.8C0 3.93989 3.92115 0 8.75814 0ZM8.75814 2.2C5.1304 2.2 2.18953 5.15492 2.18953 8.8C2.18953 10.3234 2.70208 11.7622 3.63001 12.9249C4.82754 14.4254 5.47423 16.1339 5.47411 17.9369L5.47398 19.8H10.9484L10.9495 16.5H15.3267V11.8271L17.0233 11.0969L15.3346 8.42888L15.2721 7.9433C14.8522 4.67655 12.069 2.2 8.75814 2.2ZM8.17758 6.33882L8.75814 6.92218L9.33869 6.33882C10.0869 5.58706 11.3 5.58706 12.0481 6.33882C12.7963 7.09058 12.7963 8.30942 12.0481 9.06114L8.75814 12.3669L5.46814 9.06114C4.71996 8.30942 4.71996 7.09058 5.46814 6.33882C6.21632 5.58706 7.42937 5.58706 8.17758 6.33882Z" fill="#9B5370"/>
</svg>
